<svg height="80px" viewBox="0 0 11 12" class="d-none d-lg-inline"><g fill="none" fill-rule="evenodd"><path d="M9.198.597l-.052-.2.12.108h.001L9.32.348l.053.2.048-.013-.074-.28-.05.014-.05.156-.117-.11-.052.014.074.28.047-.013zm-.295-.17l.062.234.048-.013-.061-.235.087-.023-.012-.046-.222.06.011.047.087-.024zM4.834.695L4.66.03 3.2.43l.174.665 1.46-.4zM3.425 1.759L3.085.462l-.475.842.166.633.65-.178zm2.335-.64L5.594.487 4.77 0l.34 1.297.65-.178zM11 9.644L2.405 12 0 2.82 8.595.466 11 9.645z" fill="#77A222"></path><path d="M2.383 6.099l-.238.064-.243-.914.809.734.008-.002.016-.005.008-.002.338-1.044.242.914-.238.064.074.28.752-.204-.074-.28-.205.056-.334-1.26.205-.056-.074-.28-.486.132-.353 1.166-.882-.831-.486.131.074.28.205-.056.335 1.26-.206.056.074.28.753-.204-.074-.28zm4.473 2.86l.449-.121.083.312a.783.783 0 01-.404.234c-.304.082-.66-.097-.765-.498-.104-.393.094-.728.444-.823.164-.045.279-.031.342-.004a.236.236 0 00.006.1c.031.118.136.173.26.14.112-.03.172-.145.137-.278-.058-.218-.395-.364-.814-.25A.961.961 0 005.9 8.975c.155.584.67.824 1.113.704a.803.803 0 00.445-.302l.036.136.295-.08-.25-.943-.752.204.07.265zm-1.593.263l-.441-.648-.062.784.503-.136zm.662.416l.155-.042.074.28-.692.187-.073-.277.208-.056-.18-.271-.673.182-.022.326.219-.06.073.277-.692.188-.074-.28.156-.042.114-1.385-.197.053-.073-.276 1.017-.276.073.277-.197.053.784 1.142zm-2.14.304c-.045-.168-.201-.227-.434-.164l-.235.064.14.525.243-.066c.213-.057.332-.184.286-.359zm-.735-.349l.21-.057c.217-.058.31-.19.269-.348-.041-.155-.19-.207-.408-.147l-.203.054.132.498zm1.06.291c.079.301-.107.574-.544.693l-.75.203-.073-.28.205-.055-.335-1.261-.205.055-.074-.279.72-.195c.44-.119.71.027.783.3.055.211-.037.381-.199.49.242.006.411.102.471.33zm3.986-3.082l.177-.048c.465-.126.639-.446.535-.836-.105-.398-.442-.54-.89-.42l-.157.043.335 1.26zm.208.243l-.649.176-.073-.28.205-.055-.335-1.261-.205.055-.074-.279.681-.184c.651-.177 1.128.062 1.273.612.148.556-.118 1.025-.823 1.216zm-1.327-.616c-.1-.379-.427-.584-.774-.49-.35.095-.533.435-.432.817.1.379.427.584.777.489.348-.094.53-.434.43-.816zm.32-.086c.142.533-.133 1.046-.68 1.194-.544.148-1.025-.163-1.166-.694-.141-.534.133-1.047.68-1.195.544-.148 1.025.164 1.166.695zm-3.514.952c.1.378.427.583.778.488.347-.094.53-.434.428-.815-.1-.38-.427-.584-.774-.49-.35.095-.533.435-.432.817zm-.32.086c-.141-.533.133-1.046.68-1.195.544-.147 1.025.164 1.166.695.142.534-.133 1.047-.68 1.195-.544.147-1.025-.164-1.166-.695zM2.94 8.2l-.238.064-.126-.475.53-.144-.07-.268-.531.144L2.366 7l.517-.14.064.243.296-.08-.138-.52-1.327.36.074.279.206-.056.334 1.261-.205.056.074.28.752-.205-.074-.279zm.92-3.849l-.18.049-.074-.28.68-.184.075.28-.159.042.486.494.173-.672-.17.046-.073-.28.68-.184.075.28-.18.048-.288.985.11.415.227-.062.074.28-.763.206-.074-.28.227-.06-.11-.415-.736-.708z" fill="#FFFFFE"></path></g></svg>